<?xml version="1.0" encoding="utf-8"?>
<!-- Generator: Adobe Illustrator 23.0.1, SVG Export Plug-In . SVG Version: 6.00 Build 0)  -->
<svg version="1.1" id="Layer_1" xmlns="http://www.w3.org/2000/svg" xmlns:xlink="http://www.w3.org/1999/xlink" x="0px" y="0px"
	 viewBox="0 0 200 200" style="enable-background:new 0 0 200 200;" xml:space="preserve">
<style type="text/css">
	.st0{fill:#808080;}
	.st1{fill:#534741;}
	.st2{fill:#C7B299;}
	.st3{fill:#534741;stroke:#534741;stroke-width:0.75;stroke-miterlimit:10;}
	.st4{fill:#808080;stroke:#534741;stroke-width:0.75;stroke-miterlimit:10;}
</style>
<g>
	<g>
		<path class="st0" d="M104,57c-3,1,24.6-15.8,27.9-12.1c0,0.1,0.1,0.1,0.1,0.2c0.9,2.4,0,18.9,0,19.9c0,1,40.9,2,35,38.8
			c0,0.1,0,0.2,0.1,0.4c2.3,4.1,3.8,3.9,5.6,4.7c0.2,0.1,0.3,0.3,0.3,0.5c0,5.2-0.8,24.5-34.7,21.7c-0.2,0-0.4,0.1-0.5,0.3
			c-0.7,1.2-3.5,6-4.3,9.5c-0.7,2.9-3.2,5-6.1,4.9c-4.9-0.1-11.3-1.5-17.9-6.2c0,0-0.1,0-0.1-0.1c-0.4-0.1-11.9-9-3.9-4"/>
		<g>
			<path class="st1" d="M103.3,54.6c0.1,0,0.3,0,0.4-0.1c0.8,0.8,1.7,1.7,2.5,2.5c0,2.4-1.4,1.6,0.5,0.8c1.2-0.5,2.3-1.4,3.4-2.1
				c3.4-2,6.9-3.9,10.5-5.6c2.9-1.4,6.2-2,9-3.3c0.8-0.4,1.1,0.7,0-0.8c0.2,0.3,0.2,1.5,0.2,1.9c-0.2,2.3,0,4.7,0,7
				c-0.1,3.7-2.3,11.2,2.3,12.7c4,1.3,8.3,1.5,12.4,2.9c6.3,2.2,12.5,5.7,16.3,11.3c2,2.9,3.3,6.2,3.9,9.7c0.4,2.3,0.5,4.7,0.4,7.1
				c-0.1,2.3-0.9,4.5-0.1,6.7c0.6,1.7,2.4,3.5,3.9,4.5c0.4,0.2,1.4,0.9,1.9,0.9c1.5-0.1-0.2-1.1-0.2-0.8c-0.3,1.8-0.2,3.6-0.7,5.4
				c-1.8,6.4-7,10.3-13.1,12c-2.9,0.8-5.9,1.2-8.9,1.4c-3,0.1-7.2-0.9-10-0.1c-4,1.2-5.2,8.3-6.6,11.6c-3.1,7.3-16.2,0-20.4-2.8
				c-1-0.7-1.9-1.4-2.9-2.1c-0.6-0.4-1.1-1-1.7-1.4c-2-1.2-0.2-1.7-1,0.8c-1,0.6-2.1,1.2-3.1,1.7c0.4,0.1,1.7,1,2.2,1.3
				c2.7,1.7,5.3-2.6,2.5-4.3c-1-0.6-2.2-1.5-3.4-1.8c-1.3-0.3-2.7,0.4-3.1,1.7c-0.8,2.7,3.4,5,5.1,6.3c3.6,2.8,7.4,5.1,11.6,6.7
				c4.8,1.7,11.7,3.5,16-0.1c2.1-1.8,2.5-4,3.4-6.5c0.6-1.6,1.3-3.4,2.2-4.9c1.1-1.8,0.8-1.4,2.9-1c15.1,2.5,33.8-6.2,33.8-23.1
				c0-4.8-4.9-3.5-5.8-7.4c-0.5-2.2,0.5-5.5,0.4-7.9c-0.1-2.6-0.5-5.3-1.2-7.8c-2.3-7.8-7.8-14.1-14.8-18
				c-5.6-3.2-11.9-4.9-18.3-6.1c-0.5-0.1-1.8-0.6-2.2-0.4c-0.5,0.2-0.2-0.3-0.3,0c0.1-0.2,1.3,2,1.4,2c0.1,0,0-1,0-1.1
				c0.5-1.7,0.2-4.2,0.3-6c0.1-2.8,0.2-5.6,0.1-8.4c-0.1-3.1,0-6.6-3.6-7.3c-3.6-0.7-7.9,1.5-11,2.9c-4.6,2-9,4.4-13.3,7
				c-1.7,1-5.8,2.7-5.7,5.2c0,1.4,1.1,2.4,2.5,2.5c0.3,0,0.6-0.1,0.9-0.1C107.8,58.6,106.5,53.8,103.3,54.6L103.3,54.6z"/>
		</g>
	</g>
	<g>
		<path class="st2" d="M92,67c0,0-14,20-18.5,31.5c-2,10-2.5,9.5-6.5,23.5c-5,16-45,17-41-14c-1-4,8-51,52-55c8-2,27,6,31,13
			s9,21,9,26s18,9,19,13c6,3-15,46-52,21c-12.5,23.5-9.5,23.5-9.5,23.5s-18-4-26-13"/>
		<g>
			<path class="st1" d="M89.8,65.7c-6.7,9.6-14,19.9-18.2,30.8c-2,5.2-2.9,11.2-4.6,16.6c-1.8,5.8-2.4,11.2-8,14.4
				c-8.2,4.7-21.1,3.9-27.2-3.9c-5.2-6.6-4.1-15.5-2.4-22.9c5.8-24.1,24-42.9,49.2-45.5c7.4-0.7,15.1,2.3,21.4,6
				c7.1,4.2,9.6,10.8,12.3,18.3c1.2,3.4,2.4,6.9,3,10.5c0.3,2.3,0.3,3.9,2.1,5.7c3.8,4,10,5.4,14.7,8c3.5,2,3.9,2.8,2.8,6.4
				c-1.4,4.5-4.4,8.7-7.7,12c-11.9,11.9-27.7,10-40.9,1.3c-1.1-0.7-2.8-0.3-3.4,0.9c-0.9,1.7-16.1,26.7-7.3,27.3
				c2.8,0.2,3.4-4.3,0.7-4.9c-8.9-2-18.6-5.6-24.9-12.4c-2.2-2.3-5.7,1.2-3.5,3.5c6.9,7.3,17.4,11.5,27.1,13.6
				c0.2-1.6,0.4-3.3,0.7-4.9c1.5,0.1,2,1.6,2.2,1.5c0.2-0.1,0.6-2.3,0.8-2.8c2.2-6.4,5.6-12.5,8.7-18.4c-1.1,0.3-2.3,0.6-3.4,0.9
				c12.7,8.4,28.4,11.5,41.6,2.4c6.7-4.7,15.7-14.4,15.2-23.4c-0.1-1.5-0.5-2.4-1.4-3.6c-1.2-1.7,1.2,1.4-0.4-0.6
				c-0.9-1-1.8-1.8-3-2.6c-4.3-2.8-14.2-4.4-15.4-9.8c-1.7-8.3-4.3-16.2-8.2-23.8c-3.5-6.7-10.3-10.5-17.2-13.2
				C66,41.8,37.1,65,27.2,91.3c-3,7.8-4.9,16.7-3.6,25.1c1.8,12.2,12.6,19.2,24.4,19c5.9-0.1,12.1-1.8,16.7-5.7
				c5.6-4.8,6.5-12.8,8.5-19.5c1.1-3.6,1.6-7.5,2.7-11c1.5-4.7,4.5-9.2,7-13.4c3.5-6,7.3-11.8,11.3-17.5
				C96,65.6,91.7,63.1,89.8,65.7L89.8,65.7z"/>
		</g>
	</g>
	<path class="st3" d="M102.5,101.5L102.5,101.5c-2.8,0-5-2.3-5-5v0c0-2.7,2.3-5,5-5h0c2.7,0,5,2.3,5,5v0
		C107.5,99.3,105.3,101.5,102.5,101.5z"/>
	<path class="st3" d="M152,103L152,103c-2.8,0-5-2.3-5-5v0c0-2.7,2.3-5,5-5l0,0c2.8,0,5,2.3,5,5v0C157,100.8,154.8,103,152,103z"/>
	<path class="st4" d="M106.5,135.5"/>
</g>
<g>
</g>
<g>
</g>
<g>
</g>
<g>
</g>
<g>
</g>
<g>
</g>
<g>
</g>
<g>
</g>
<g>
</g>
<g>
</g>
<g>
</g>
</svg>
